<?xml version="1.0" encoding="utf-8"?>
<!-- Generator: Adobe Illustrator 16.0.0, SVG Export Plug-In . SVG Version: 6.00 Build 0)  -->
<!DOCTYPE svg PUBLIC "-//W3C//DTD SVG 1.1//EN" "http://www.w3.org/Graphics/SVG/1.1/DTD/svg11.dtd">
<svg version="1.1" id="Layer_1" xmlns="http://www.w3.org/2000/svg" xmlns:xlink="http://www.w3.org/1999/xlink" x="0px" y="0px"
	 width="1100px" height="1100px" viewBox="0 0 1100 1100" enable-background="new 0 0 1100 1100" xml:space="preserve">
<g id="Logo">
	<g id="ensemble_vertical">
		<g>
			<g>
				<path fill="#005067" d="M503,197c-6.6,0-12,5.4-12,12v685c0,6.6,5.4,12,12,12h6c6.6,0,12-5.4,12-12V209c0-6.6-5.4-12-12-12H503z
					"/>
				<g>
					<path fill="#FFFFFF" d="M525,798.6c0,10.1-8.2,18.4-18.4,18.4h-0.3c-10.1,0-18.4-8.2-18.4-18.4V303.4
						c0-10.1,8.2-18.4,18.4-18.4h0.3c10.1,0,18.4,8.2,18.4,18.4V798.6z"/>
					<path fill="#005067" d="M507.1,293c6,0,10.9,4.4,10.9,10.4v495.3c0,6-4.9,11.4-10.9,11.4h-0.3c-6,0-10.9-5.4-10.9-11.4V303.4
						c0-6,4.9-10.4,10.9-10.4h0.1 M507.1,278h-0.3c-14.3,0-25.9,11.1-25.9,25.4v495.3c0,14.3,11.6,26.4,25.9,26.4h0.3
						c14.3,0,25.9-12.1,25.9-26.4V303.4C533,289.1,521.4,278,507.1,278L507.1,278z"/>
				</g>
			</g>
			<g>
				<path fill="#005067" d="M592,196c-6.6,0-12,5.4-12,12v685c0,6.6,5.4,12,12,12h6c6.6,0,12-5.4,12-12V208c0-6.6-5.4-12-12-12H592z
					"/>
				<g>
					<path fill="#FFFFFF" d="M614,798.6c0,10.1-8.2,18.4-18.4,18.4h-0.3c-10.1,0-18.4-8.2-18.4-18.4V303.4
						c0-10.1,8.2-18.4,18.4-18.4h0.3c10.1,0,18.4,8.2,18.4,18.4V798.6z"/>
					<path fill="#005067" d="M596.1,292c6,0,10.9,4.9,10.9,10.9v495.3c0,6-4.9,10.9-10.9,10.9h-0.3c-6,0-10.9-4.9-10.9-10.9V302.9
						c0-6,4.9-10.9,10.9-10.9H596.1 M596.1,277h-0.3c-14.3,0-25.9,11.6-25.9,25.9v495.3c0,14.3,11.6,25.9,25.9,25.9h0.3
						c14.3,0,25.9-11.6,25.9-25.9V302.9C622,288.6,610.4,277,596.1,277L596.1,277z"/>
				</g>
			</g>
		</g>
		<path fill="#005067" d="M550.9,132c-5.4,0-9.9,4.4-9.9,9.9v819.3c0,5.4,4.4,9.9,9.9,9.9h0.3c5.4,0,9.9-4.4,9.9-9.9V141.9
			c0-5.4-4.4-9.9-9.9-9.9H550.9z"/>
		<g>
			<g>
				<g>
					<g>
						
							<path fill="none" stroke="#005067" stroke-width="32" stroke-linecap="round" stroke-linejoin="round" stroke-miterlimit="10" d="
							M254,1044.4l145-148.1c7.7-7.9,14-23.3,14-34.3V91"/>
					</g>
					<g>
						<path fill="#FFFFFF" d="M255,1080c-19.6,0-35.5-15.9-35.5-35.5s15.9-35.5,35.5-35.5s35.5,15.9,35.5,35.5S274.6,1080,255,1080z
							"/>
						<path fill="#005067" d="M255,1025c10.8,0,19.5,8.7,19.5,19.5s-8.7,19.5-19.5,19.5s-19.5-8.7-19.5-19.5S244.2,1025,255,1025
							 M255,993c-28.4,0-51.5,23.1-51.5,51.5s23.1,51.5,51.5,51.5s51.5-23.1,51.5-51.5S283.4,993,255,993L255,993z"/>
					</g>
					<g>
						<path fill="#FFFFFF" d="M414,126c-19.6,0-35.5-15.9-35.5-35.5S394.4,55,414,55s35.5,15.9,35.5,35.5S433.6,126,414,126z"/>
						<path fill="#005067" d="M414,71c10.8,0,19.5,8.7,19.5,19.5S424.8,110,414,110s-19.5-8.7-19.5-19.5S403.2,71,414,71 M414,39
							c-28.4,0-51.5,23.1-51.5,51.5S385.6,142,414,142s51.5-23.1,51.5-51.5S442.4,39,414,39L414,39z"/>
					</g>
				</g>
				<g>
					<path fill="#FFFFFF" d="M432,798.6c0,10.1-8.2,18.4-18.4,18.4h-0.3c-10.1,0-18.4-8.2-18.4-18.4V303.4
						c0-10.1,8.2-18.4,18.4-18.4h0.3c10.1,0,18.4,8.2,18.4,18.4V798.6z"/>
					<path fill="#005067" d="M414.1,292c6,0,10.9,4.9,10.9,10.9v495.3c0,6-4.9,10.9-10.9,10.9h-0.3c-6,0-10.9-4.9-10.9-10.9V302.9
						c0-6,4.9-10.9,10.9-10.9H414.1 M414.1,277h-0.3c-14.3,0-25.9,11.6-25.9,25.9v495.3c0,14.3,11.6,25.9,25.9,25.9h0.3
						c14.3,0,25.9-11.6,25.9-25.9V302.9C440,288.6,428.4,277,414.1,277L414.1,277z"/>
				</g>
			</g>
			<g>
				<g>
					<g>
						
							<path fill="none" stroke="#005067" stroke-width="32" stroke-linecap="round" stroke-linejoin="round" stroke-miterlimit="10" d="
							M845,56.1L700,203.7c-7.7,7.8-14,23.3-14,34.3v772"/>
					</g>
					<g>
						<path fill="#FFFFFF" d="M845,91c-19.6,0-35.5-15.9-35.5-35.5S825.4,20,845,20s35.5,15.9,35.5,35.5S864.6,91,845,91z"/>
						<path fill="#005067" d="M845,36c10.8,0,19.5,8.7,19.5,19.5S855.8,75,845,75s-19.5-8.7-19.5-19.5S834.2,36,845,36 M845,4
							c-28.4,0-51.5,23.1-51.5,51.5S816.6,107,845,107s51.5-23.1,51.5-51.5S873.4,4,845,4L845,4z"/>
					</g>
					<g>
						<path fill="#FFFFFF" d="M686,1045c-19.6,0-35.5-15.9-35.5-35.5S666.4,974,686,974s35.5,15.9,35.5,35.5S705.6,1045,686,1045z"
							/>
						<path fill="#005067" d="M686,990c10.8,0,19.5,8.7,19.5,19.5s-8.7,19.5-19.5,19.5s-19.5-8.7-19.5-19.5S675.2,990,686,990
							 M686,958c-28.4,0-51.5,23.1-51.5,51.5s23.1,51.5,51.5,51.5s51.5-23.1,51.5-51.5S714.4,958,686,958L686,958z"/>
					</g>
				</g>
				<g>
					<path fill="#FFFFFF" d="M704,797.6c0,10.1-8.2,18.4-18.4,18.4h-0.3c-10.1,0-18.4-8.2-18.4-18.4V302.4
						c0-10.1,8.2-18.4,18.4-18.4h0.3c10.1,0,18.4,8.2,18.4,18.4V797.6z"/>
					<path fill="#005067" d="M686.1,291c6,0,10.9,4.9,10.9,10.9v495.3c0,6-4.9,10.9-10.9,10.9h-0.3c-6,0-10.9-4.9-10.9-10.9V301.9
						c0-6,4.9-10.9,10.9-10.9H686.1 M686.1,276h-0.3c-14.3,0-25.9,11.6-25.9,25.9v495.3c0,14.3,11.6,25.9,25.9,25.9h0.3
						c14.3,0,25.9-11.6,25.9-25.9V301.9C712,287.6,700.4,276,686.1,276L686.1,276z"/>
				</g>
			</g>
		</g>
	</g>
	<g id="ensemble_horizontal">
		<g>
			<g>
				<path fill="#005067" d="M904,597c0,6.6-5.4,12-12,12H207c-6.6,0-12-5.4-12-12v-6c0-6.6,5.4-12,12-12h685c6.6,0,12,5.4,12,12V597
					z"/>
				<g>
					<path fill="#FFFFFF" d="M815,593.6c0,10.1-8.2,18.4-18.4,18.4H301.4c-10.1,0-18.4-8.2-18.4-18.4v-0.3
						c0-10.1,8.2-18.4,18.4-18.4h495.3c10.1,0,18.4,8.2,18.4,18.4V593.6z"/>
					<path fill="#005067" d="M797.1,582c6,0,10.9,4.9,10.9,10.9v0.3c0,6-4.9,10.9-10.9,10.9H301.9c-6,0-10.9-4.9-10.9-10.9v-0.3
						c0-6,4.9-10.9,10.9-10.9H797.1 M797.1,567H301.9c-14.3,0-25.9,11.6-25.9,25.9v0.3c0,14.3,11.6,25.9,25.9,25.9h495.3
						c14.3,0,25.9-11.6,25.9-25.9v-0.3C823,578.6,811.4,567,797.1,567L797.1,567z"/>
				</g>
			</g>
			<g>
				<path fill="#005067" d="M905,508c0,6.6-5.4,12-12,12H208c-6.6,0-12-5.4-12-12v-6c0-6.6,5.4-12,12-12h685c6.6,0,12,5.4,12,12V508
					z"/>
				<g>
					<path fill="#FFFFFF" d="M816,504.6c0,10.1-8.2,18.4-18.4,18.4H302.4c-10.1,0-18.4-8.2-18.4-18.4v-0.3
						c0-10.1,8.2-18.4,18.4-18.4h495.3c10.1,0,18.4,8.2,18.4,18.4V504.6z"/>
					<path fill="#005067" d="M797.6,493c6,0,10.4,4.9,10.4,10.9v0.3c0,6-4.4,10.9-10.4,10.9H302.4c-6,0-11.4-4.9-11.4-10.9v-0.3
						c0-6,5.4-10.9,11.4-10.9H798 M797.6,478H302.4c-14.3,0-26.4,11.6-26.4,25.9v0.3c0,14.3,12.1,25.9,26.4,25.9h495.3
						c14.3,0,25.4-11.6,25.4-25.9v-0.3c0-14.3-11.3-25.9-25.6-25.9H797.6z"/>
				</g>
			</g>
		</g>
		<path fill="#005067" d="M969,549.1c0,5.4-4.4,9.9-9.9,9.9H139.9c-5.4,0-9.9-4.4-9.9-9.9v-0.3c0-5.4,4.4-9.9,9.9-9.9h819.3
			c5.4,0,9.9,4.4,9.9,9.9V549.1z"/>
		<g>
			<g>
				<g>
					<g>
						
							<path fill="none" stroke="#005067" stroke-width="32" stroke-linecap="round" stroke-linejoin="round" stroke-miterlimit="10" d="
							M56.3,846l147.9-145c7.9-7.7,23.3-14,34.3-14H1010"/>
					</g>
					<g>
						<path fill="#FFFFFF" d="M56,880.5c-19.6,0-35.5-15.9-35.5-35.5s15.9-35.5,35.5-35.5s35.5,15.9,35.5,35.5S75.6,880.5,56,880.5z
							"/>
						<path fill="#005067" d="M56,825.5c10.8,0,19.5,8.7,19.5,19.5s-8.7,19.5-19.5,19.5s-19.5-8.7-19.5-19.5S45.2,825.5,56,825.5
							 M56,793.5c-28.4,0-51.5,23.1-51.5,51.5s23.1,51.5,51.5,51.5s51.5-23.1,51.5-51.5S84.4,793.5,56,793.5L56,793.5z"/>
					</g>
					<g>
						<path fill="#FFFFFF" d="M1010,721.5c-19.6,0-35.5-15.9-35.5-35.5s15.9-35.5,35.5-35.5s35.5,15.9,35.5,35.5
							S1029.6,721.5,1010,721.5z"/>
						<path fill="#005067" d="M1010,666.5c10.8,0,19.5,8.7,19.5,19.5s-8.7,19.5-19.5,19.5s-19.5-8.7-19.5-19.5
							S999.2,666.5,1010,666.5 M1010,634.5c-28.4,0-51.5,23.1-51.5,51.5s23.1,51.5,51.5,51.5s51.5-23.1,51.5-51.5
							S1038.4,634.5,1010,634.5L1010,634.5z"/>
					</g>
				</g>
				<g>
					<path fill="#FFFFFF" d="M816,686.6c0,10.1-8.2,18.4-18.4,18.4H302.4c-10.1,0-18.4-8.2-18.4-18.4v-0.3
						c0-10.1,8.2-18.4,18.4-18.4h495.3c10.1,0,18.4,8.2,18.4,18.4V686.6z"/>
					<path fill="#005067" d="M797.6,675c6,0,10.4,4.9,10.4,10.9v0.3c0,6-4.4,10.9-10.4,10.9H302.4c-6,0-11.4-4.9-11.4-10.9v-0.3
						c0-6,5.4-10.9,11.4-10.9H798 M797.6,660H302.4c-14.3,0-26.4,11.6-26.4,25.9v0.3c0,14.3,12.1,25.9,26.4,25.9h495.3
						c14.3,0,25.4-11.6,25.4-25.9v-0.3c0-14.3-11.3-25.9-25.6-25.9H797.6z"/>
				</g>
			</g>
			<g>
				<g>
					<g>
						
							<path fill="none" stroke="#005067" stroke-width="32" stroke-linecap="round" stroke-linejoin="round" stroke-miterlimit="10" d="
							M1044.7,255L896.8,400c-7.9,7.7-23.3,14-34.3,14H91"/>
					</g>
					<g>
						<path fill="#FFFFFF" d="M1045,290.5c-19.6,0-35.5-15.9-35.5-35.5s15.9-35.5,35.5-35.5s35.5,15.9,35.5,35.5
							S1064.6,290.5,1045,290.5z"/>
						<path fill="#005067" d="M1045,235.5c10.8,0,19.5,8.7,19.5,19.5s-8.7,19.5-19.5,19.5s-19.5-8.7-19.5-19.5
							S1034.2,235.5,1045,235.5 M1045,203.5c-28.4,0-51.5,23.1-51.5,51.5s23.1,51.5,51.5,51.5s51.5-23.1,51.5-51.5
							S1073.4,203.5,1045,203.5L1045,203.5z"/>
					</g>
					<g>
						<path fill="#FFFFFF" d="M91,449.5c-19.6,0-35.5-15.9-35.5-35.5s15.9-35.5,35.5-35.5s35.5,15.9,35.5,35.5S110.6,449.5,91,449.5
							z"/>
						<path fill="#005067" d="M91,394.5c10.8,0,19.5,8.7,19.5,19.5s-8.7,19.5-19.5,19.5s-19.5-8.7-19.5-19.5S80.2,394.5,91,394.5
							 M91,362.5c-28.4,0-51.5,23.1-51.5,51.5s23.1,51.5,51.5,51.5s51.5-23.1,51.5-51.5S119.4,362.5,91,362.5L91,362.5z"/>
					</g>
				</g>
				<g>
					<path fill="#FFFFFF" d="M817,414.6c0,10.1-8.2,18.4-18.4,18.4H303.4c-10.1,0-18.4-8.2-18.4-18.4v-0.3
						c0-10.1,8.2-18.4,18.4-18.4h495.3c10.1,0,18.4,8.2,18.4,18.4V414.6z"/>
					<path fill="#005067" d="M798.6,403c6,0,10.4,4.9,10.4,10.9v0.3c0,6-4.4,10.9-10.4,10.9H303.4c-6,0-11.4-4.9-11.4-10.9v-0.3
						c0-6,5.4-10.9,11.4-10.9H799 M798.6,388H303.4c-14.3,0-26.4,11.6-26.4,25.9v0.3c0,14.3,12.1,25.9,26.4,25.9h495.3
						c14.3,0,25.4-11.6,25.4-25.9v-0.3c0-14.3-11.3-25.9-25.6-25.9H798.6z"/>
				</g>
			</g>
		</g>
	</g>
	<g id="carré_milieu">
		<g>
			<path fill="#FFFFFF" d="M362.3,759c-11.3,0-21.3-10.7-21.3-22.7V362.7c0-11.7,9.8-20.7,21.3-20.7h376.4
				c11.3,0,19.3,8.6,19.3,20.7v373.6c0,12.2-8.4,22.7-19.3,22.7H362.3z"/>
			<path fill="#005067" d="M738.8,350c6.5,0,11.2,5.4,11.2,12.7v373.6c0,7.3-4.8,13.7-11.3,13.7H362.3c-6.5,0-12.3-6.4-12.3-13.7
				V362.7c0-7.3,5.8-12.7,12.3-12.7H739 M738.7,333H362.3c-16.2,0-29.3,13.3-29.3,29.7v373.6c0,16.6,13.4,30.7,29.3,30.7h376.4
				c8.2,0,16-3.8,21.4-10.5c4.5-5.6,7-12.8,7-20.2V362.7C767,346,754.6,333,738.7,333L738.7,333z"/>
		</g>
	</g>
	<g id="_x33_iL_logo">
		<path fill="#E94C0A" d="M379.8,378.1l-5.1,272.6c-0.1,1.1,0,1.6,0.2,1.8c0.2,0.3,1.6,0.4,3.8-1l13.1-7.8c3.8-2.3,3.8-5,3.8-5.9
			l3.4-241.1l216.5,110.2c2.2,1.3,4.6,1.1,7.1-0.4l13.1-7.8c1.8-1,2.6-2.1,2.7-2.7l0-0.3c-0.1-0.1-0.4-0.5-1.2-0.9L391.2,371.3
			c-4.9-2.5-6.2-1.7-7.2-1.1l-0.6,0.4C381.1,372,379.9,372.9,379.8,378.1"/>
		<path fill="#E94C0A" d="M724.9,509.7l-228.3-149c-0.9-0.6-1.4-0.8-1.6-0.8c-0.3,0-1.1,1.1-1.2,3.7l-0.4,15.2
			c-0.1,4.4,2.2,5.8,3,6.3L698.9,516L490.5,641c-2.3,1.2-3.4,3.3-3.4,6.2l-0.4,15.2c-0.1,2.1,0.4,3.3,0.8,3.7l0.2,0.1
			c0.1,0,0.6,0,1.4-0.6L724.6,523c4.7-2.8,4.7-4.3,4.7-5.6l0-0.7C729.4,514,729.2,512.6,724.9,509.7"/>
		<path fill="#E94C0A" d="M446.9,738.3l236.6-135.4c1-0.5,1.3-0.9,1.5-1.1c0.1-0.3-0.5-1.5-2.8-2.8l-13.4-7.3
			c-3.9-2.1-6.2-0.7-7-0.2L453.1,712.3l-16.4-242.4c-0.1-2.6-1.4-4.5-4-5.9l-13.4-7.2c-1.8-1-3.1-1.1-3.7-1l-0.2,0.1
			c-0.1,0.1-0.2,0.6-0.1,1.5L435.2,732c0.4,5.4,1.7,6.2,2.8,6.8l0.6,0.3C441,740.4,442.4,740.9,446.9,738.3"/>
	</g>
</g>
</svg>
