<?xml version="1.0" encoding="utf-8"?>
<!-- Generator: Adobe Illustrator 16.0.0, SVG Export Plug-In . SVG Version: 6.00 Build 0)  -->
<!DOCTYPE svg PUBLIC "-//W3C//DTD SVG 1.1//EN" "http://www.w3.org/Graphics/SVG/1.1/DTD/svg11.dtd">
<svg version="1.1" id="logo" xmlns="http://www.w3.org/2000/svg" xmlns:xlink="http://www.w3.org/1999/xlink" x="0px" y="0px"
	 width="500px" height="500px" viewBox="0 0 500 500" enable-background="new 0 0 500 500" xml:space="preserve">
<g id="logo_1">
	<rect x="-429.342" y="-235.333" fill="none" width="235.33" height="266.12"/>
	<text transform="matrix(1 0 0 1 -429.3418 -25.9341)" fill="#7B1315" font-family="'Dubai-Regular'" font-size="300">a</text>
	<rect x="-365.133" y="-86.294" fill="none" width="160.326" height="257.628"/>
	<text transform="matrix(1 0 0 1 -365.1328 123.105)" fill="#7B1315" font-family="'Dubai-Regular'" font-size="300">t</text>
	
		<circle id="cercle" fill="none" stroke="#1E1B57" stroke-width="23" stroke-miterlimit="10" cx="-334.97" cy="-12.945" r="141.001"/>
</g>
<rect x="702.537" y="147.021" fill="#2D2E2D" width="595.275" height="492.852"/>
<g id="logo_2">
	<path id="fond" display="none" fill="#FFFFFF" d="M492.315,250c0,128.962-108.49,233.5-242.312,233.5
		C116.175,483.5,7.684,378.962,7.684,250S116.175,16.5,250.004,16.5C383.825,16.5,492.315,121.038,492.315,250z"/>
	<g id="AT_fond">
		
			<line fill="none" stroke="#FFFFFF" stroke-width="36" stroke-linecap="round" stroke-linejoin="round" stroke-miterlimit="10" x1="99.671" y1="351.716" x2="172.58" y2="351.716"/>
		
			<line fill="none" stroke="#FFFFFF" stroke-width="36" stroke-linecap="round" stroke-linejoin="round" stroke-miterlimit="10" x1="172.58" y1="351.716" x2="259.58" y2="151.768"/>
		
			<line fill="none" stroke="#FFFFFF" stroke-width="36" stroke-linecap="round" stroke-linejoin="round" stroke-miterlimit="10" x1="259.58" y1="151.768" x2="259.58" y2="351.716"/>
		
			<line fill="none" stroke="#FFFFFF" stroke-width="36" stroke-linecap="round" stroke-linejoin="round" stroke-miterlimit="10" x1="170.08" y1="151.768" x2="349.079" y2="151.768"/>
		
			<line fill="none" stroke="#FFFFFF" stroke-width="36" stroke-linecap="round" stroke-linejoin="round" stroke-miterlimit="10" x1="210.987" y1="272.955" x2="254.58" y2="272.955"/>
	</g>
	<g id="AT">
		
			<line fill="none" stroke="#000000" stroke-width="29" stroke-linecap="round" stroke-linejoin="round" stroke-miterlimit="10" x1="99.671" y1="351.716" x2="172.58" y2="351.716"/>
		
			<line fill="none" stroke="#000000" stroke-width="29" stroke-linecap="round" stroke-linejoin="round" stroke-miterlimit="10" x1="172.58" y1="351.716" x2="259.58" y2="151.768"/>
		
			<line fill="none" stroke="#000000" stroke-width="29" stroke-linecap="round" stroke-linejoin="round" stroke-miterlimit="10" x1="259.58" y1="151.768" x2="259.58" y2="351.716"/>
		
			<line fill="none" stroke="#000000" stroke-width="29" stroke-linecap="round" stroke-linejoin="round" stroke-miterlimit="10" x1="170.08" y1="151.768" x2="349.079" y2="151.768"/>
		
			<line fill="none" stroke="#000000" stroke-width="29" stroke-linecap="round" stroke-linejoin="round" stroke-miterlimit="10" x1="210.987" y1="272.955" x2="254.58" y2="272.955"/>
	</g>
	
		<circle display="none" fill="none" stroke="#FFFFFF" stroke-width="5" stroke-linecap="round" stroke-linejoin="round" stroke-miterlimit="10" cx="90.23" cy="351.465" r="21.63"/>
	
		<circle display="none" fill="none" stroke="#000000" stroke-width="11" stroke-miterlimit="10" cx="254.526" cy="251.172" r="191"/>
	<g id="points_gauche">
		<defs>
			<path id="SVGID_1_" d="M289.526,60.172c0,19.33-15.67,35-35,35c-19.331,0-35.001-15.67-35.001-35c0-19.329,15.67-35,35.001-35
				C273.856,25.172,289.526,40.843,289.526,60.172z M141.89,65.053c-16.634,0-30.118,13.484-30.118,30.119
				s13.484,30.119,30.118,30.119c16.635,0,30.119-13.484,30.119-30.119S158.524,65.053,141.89,65.053z M76.602,151.74
				c-14.268,0-25.833,11.566-25.833,25.834s11.565,25.834,25.833,25.834s25.834-11.566,25.834-25.834S90.869,151.74,76.602,151.74z
				 M63.526,247.502c-13.276,0-24.038,10.762-24.038,24.037s10.762,24.037,24.038,24.037c13.275,0,24.038-10.762,24.038-24.037
				S76.802,247.502,63.526,247.502z M91.006,332.736c-10.364,0-18.766,8.402-18.766,18.766s8.401,18.766,18.766,18.766
				c10.363,0,18.766-8.402,18.766-18.766S101.369,332.736,91.006,332.736z M139.47,388.602c-7.67,0-13.888,6.217-13.888,13.887
				s6.218,13.887,13.888,13.887c7.669,0,13.887-6.217,13.887-13.887S147.139,388.602,139.47,388.602z M191.859,424.004
				c-4.279,0-7.749,3.469-7.749,7.748s3.47,7.75,7.749,7.75c4.28,0,7.749-3.471,7.749-7.75S196.14,424.004,191.859,424.004z"/>
		</defs>
		<clipPath id="SVGID_2_">
			<use xlink:href="#SVGID_1_"  overflow="visible"/>
		</clipPath>
		
			<linearGradient id="SVGID_3_" gradientUnits="userSpaceOnUse" x1="114.6738" y1="441.3887" x2="-31.637" y2="-103.2151" gradientTransform="matrix(0.7398 0.1782 -0.1988 0.8252 152.5335 66.4466)">
			<stop  offset="0" style="stop-color:#7D86C1"/>
			<stop  offset="0.1228" style="stop-color:#886D8C"/>
			<stop  offset="0.2813" style="stop-color:#8B505B"/>
			<stop  offset="0.4246" style="stop-color:#89383A"/>
			<stop  offset="0.5472" style="stop-color:#852523"/>
			<stop  offset="0.6445" style="stop-color:#821616"/>
			<stop  offset="0.7043" style="stop-color:#811012"/>
		</linearGradient>
		<polygon clip-path="url(#SVGID_2_)" fill="url(#SVGID_3_)" stroke="#FFFFFF" stroke-width="4" stroke-miterlimit="10" points="
			209.66,447.811 -10.539,394.771 89.624,-21.07 309.823,31.969 		"/>
		<use xlink:href="#SVGID_1_"  overflow="visible" fill="none" stroke="#FFFFFF" stroke-width="4" stroke-miterlimit="10"/>
	</g>
	<g id="points_droite">
		<defs>
			<path id="SVGID_4_" d="M218.489,441.5c0-19.33,15.67-35,35-35s35,15.67,35,35s-15.67,35-35,35S218.489,460.83,218.489,441.5z
				 M366.126,436.619c16.633,0,30.117-13.484,30.117-30.117c0-16.635-13.484-30.119-30.117-30.119
				c-16.635,0-30.119,13.484-30.119,30.119C336.007,423.135,349.491,436.619,366.126,436.619z M431.413,349.932
				c14.268,0,25.834-11.564,25.834-25.832s-11.566-25.834-25.834-25.834s-25.834,11.566-25.834,25.834
				S417.146,349.932,431.413,349.932z M444.489,254.172c13.275,0,24.037-10.762,24.037-24.039c0-13.275-10.762-24.037-24.037-24.037
				s-24.039,10.762-24.039,24.037C420.45,243.41,431.214,254.172,444.489,254.172z M417.009,168.938
				c10.365,0,18.766-8.402,18.766-18.766c0-10.365-8.4-18.766-18.766-18.766c-10.363,0-18.766,8.4-18.766,18.766
				C398.243,160.535,406.646,168.938,417.009,168.938z M368.546,113.072c7.67,0,13.887-6.217,13.887-13.887
				s-6.217-13.889-13.887-13.889s-13.887,6.219-13.887,13.889S360.876,113.072,368.546,113.072z M316.155,77.67
				c4.279,0,7.75-3.471,7.75-7.75s-3.471-7.748-7.75-7.748s-7.748,3.469-7.748,7.748S311.876,77.67,316.155,77.67z"/>
		</defs>
		<clipPath id="SVGID_5_">
			<use xlink:href="#SVGID_4_"  overflow="visible"/>
		</clipPath>
		
			<linearGradient id="SVGID_6_" gradientUnits="userSpaceOnUse" x1="502.9189" y1="850.3584" x2="356.6083" y2="305.7556" gradientTransform="matrix(-0.7398 -0.1782 0.1988 -0.8252 561.429 841.8811)">
			<stop  offset="0" style="stop-color:#F48280"/>
			<stop  offset="0.1228" style="stop-color:#C06982"/>
			<stop  offset="0.2813" style="stop-color:#8C5183"/>
			<stop  offset="0.4246" style="stop-color:#664184"/>
			<stop  offset="0.5472" style="stop-color:#473884"/>
			<stop  offset="0.6445" style="stop-color:#323284"/>
			<stop  offset="0.7043" style="stop-color:#2A3085"/>
		</linearGradient>
		<polygon clip-path="url(#SVGID_5_)" fill="url(#SVGID_6_)" stroke="#FFFFFF" stroke-width="4" stroke-miterlimit="10" points="
			298.354,53.861 518.554,106.9 418.392,522.742 198.191,469.703 		"/>
		<use xlink:href="#SVGID_4_"  overflow="visible" fill="none" stroke="#FFFFFF" stroke-width="4" stroke-miterlimit="10"/>
	</g>
</g>
<g id="logo_2_dark">
	<path id="fond_1_" fill="#FFFFFF" d="M1176.494,302.191c0,128.962-108.49,233.5-242.312,233.5
		c-133.828,0-242.32-104.538-242.32-233.5s108.492-233.5,242.32-233.5C1068.004,68.691,1176.494,173.229,1176.494,302.191z"/>
	<g id="AT_fond_1_">
		
			<line fill="none" stroke="#FFFFFF" stroke-width="36" stroke-linecap="round" stroke-linejoin="round" stroke-miterlimit="10" x1="783.85" y1="403.907" x2="856.759" y2="403.907"/>
		
			<line fill="none" stroke="#FFFFFF" stroke-width="36" stroke-linecap="round" stroke-linejoin="round" stroke-miterlimit="10" x1="856.759" y1="403.907" x2="943.759" y2="203.959"/>
		
			<line fill="none" stroke="#FFFFFF" stroke-width="36" stroke-linecap="round" stroke-linejoin="round" stroke-miterlimit="10" x1="943.759" y1="203.959" x2="943.759" y2="403.907"/>
		
			<line fill="none" stroke="#FFFFFF" stroke-width="36" stroke-linecap="round" stroke-linejoin="round" stroke-miterlimit="10" x1="854.259" y1="203.959" x2="1033.258" y2="203.959"/>
		
			<line fill="none" stroke="#FFFFFF" stroke-width="36" stroke-linecap="round" stroke-linejoin="round" stroke-miterlimit="10" x1="895.166" y1="325.146" x2="938.759" y2="325.146"/>
	</g>
	<g id="AT_1_">
		
			<line fill="none" stroke="#000000" stroke-width="29" stroke-linecap="round" stroke-linejoin="round" stroke-miterlimit="10" x1="783.85" y1="403.907" x2="856.759" y2="403.907"/>
		
			<line fill="none" stroke="#000000" stroke-width="29" stroke-linecap="round" stroke-linejoin="round" stroke-miterlimit="10" x1="856.759" y1="403.907" x2="943.759" y2="203.959"/>
		
			<line fill="none" stroke="#000000" stroke-width="29" stroke-linecap="round" stroke-linejoin="round" stroke-miterlimit="10" x1="943.759" y1="203.959" x2="943.759" y2="403.907"/>
		
			<line fill="none" stroke="#000000" stroke-width="29" stroke-linecap="round" stroke-linejoin="round" stroke-miterlimit="10" x1="854.259" y1="203.959" x2="1033.258" y2="203.959"/>
		
			<line fill="none" stroke="#000000" stroke-width="29" stroke-linecap="round" stroke-linejoin="round" stroke-miterlimit="10" x1="895.166" y1="325.146" x2="938.759" y2="325.146"/>
	</g>
	
		<circle display="none" fill="none" stroke="#FFFFFF" stroke-width="5" stroke-linecap="round" stroke-linejoin="round" stroke-miterlimit="10" cx="774.409" cy="403.656" r="21.63"/>
	
		<circle display="none" fill="none" stroke="#000000" stroke-width="11" stroke-miterlimit="10" cx="938.705" cy="303.363" r="191"/>
	<g id="points_gauche_1_">
		<defs>
			<path id="SVGID_7_" d="M973.705,112.363c0,19.33-15.67,35-35,35c-19.331,0-35.001-15.67-35.001-35c0-19.33,15.67-35,35.001-35
				C958.035,77.363,973.705,93.034,973.705,112.363z M826.069,117.244c-16.635,0-30.119,13.484-30.119,30.119
				s13.484,30.119,30.119,30.119c16.634,0,30.118-13.484,30.118-30.119S842.703,117.244,826.069,117.244z M760.78,203.932
				c-14.268,0-25.833,11.566-25.833,25.834S746.513,255.6,760.78,255.6s25.834-11.566,25.834-25.834S775.048,203.932,760.78,203.932
				z M747.705,299.693c-13.276,0-24.038,10.762-24.038,24.037s10.762,24.037,24.038,24.037s24.038-10.762,24.038-24.037
				S760.981,299.693,747.705,299.693z M775.185,384.928c-10.363,0-18.766,8.402-18.766,18.766s8.402,18.766,18.766,18.766
				s18.766-8.402,18.766-18.766S785.548,384.928,775.185,384.928z M823.648,440.793c-7.67,0-13.888,6.217-13.888,13.887
				s6.218,13.887,13.888,13.887c7.669,0,13.888-6.217,13.888-13.887S831.317,440.793,823.648,440.793z M876.038,476.195
				c-4.279,0-7.748,3.469-7.748,7.748s3.469,7.75,7.748,7.75c4.28,0,7.75-3.471,7.75-7.75S880.318,476.195,876.038,476.195z"/>
		</defs>
		<clipPath id="SVGID_8_">
			<use xlink:href="#SVGID_7_"  overflow="visible"/>
		</clipPath>
		
			<linearGradient id="SVGID_9_" gradientUnits="userSpaceOnUse" x1="1004.8076" y1="312.4072" x2="858.497" y2="-232.1956" gradientTransform="matrix(0.7398 0.1782 -0.1988 0.8252 152.5335 66.4466)">
			<stop  offset="0" style="stop-color:#7D86C1"/>
			<stop  offset="0.1228" style="stop-color:#886D8C"/>
			<stop  offset="0.2813" style="stop-color:#8B505B"/>
			<stop  offset="0.4246" style="stop-color:#89383A"/>
			<stop  offset="0.5472" style="stop-color:#852523"/>
			<stop  offset="0.6445" style="stop-color:#821616"/>
			<stop  offset="0.7043" style="stop-color:#811012"/>
		</linearGradient>
		<polygon clip-path="url(#SVGID_8_)" fill="url(#SVGID_9_)" stroke="#FFFFFF" stroke-width="4" stroke-miterlimit="10" points="
			893.839,500.002 673.64,446.963 773.804,31.121 994.002,84.16 		"/>
		<use xlink:href="#SVGID_7_"  overflow="visible" fill="none" stroke="#FFFFFF" stroke-width="4" stroke-miterlimit="10"/>
	</g>
	<g id="points_droite_1_">
		<defs>
			<path id="SVGID_10_" d="M902.668,493.691c0-19.33,15.67-35,35-35s35,15.67,35,35s-15.67,35-35,35
				S902.668,513.021,902.668,493.691z M1050.305,488.811c16.633,0,30.117-13.484,30.117-30.117
				c0-16.635-13.484-30.119-30.117-30.119c-16.635,0-30.119,13.484-30.119,30.119
				C1020.186,475.326,1033.67,488.811,1050.305,488.811z M1115.592,402.123c14.268,0,25.834-11.564,25.834-25.832
				s-11.566-25.834-25.834-25.834s-25.834,11.566-25.834,25.834S1101.324,402.123,1115.592,402.123z M1128.668,306.363
				c13.275,0,24.037-10.762,24.037-24.039c0-13.275-10.762-24.037-24.037-24.037s-24.039,10.762-24.039,24.037
				C1104.629,295.602,1115.393,306.363,1128.668,306.363z M1101.188,221.129c10.365,0,18.766-8.402,18.766-18.766
				c0-10.365-8.4-18.766-18.766-18.766c-10.363,0-18.766,8.4-18.766,18.766C1082.422,212.727,1090.824,221.129,1101.188,221.129z
				 M1052.725,165.264c7.67,0,13.887-6.217,13.887-13.887s-6.217-13.889-13.887-13.889s-13.887,6.219-13.887,13.889
				S1045.055,165.264,1052.725,165.264z M1000.334,129.861c4.279,0,7.75-3.471,7.75-7.75s-3.471-7.748-7.75-7.748
				s-7.748,3.469-7.748,7.748S996.055,129.861,1000.334,129.861z"/>
		</defs>
		<clipPath id="SVGID_11_">
			<use xlink:href="#SVGID_10_"  overflow="visible"/>
		</clipPath>
		
			<linearGradient id="SVGID_12_" gradientUnits="userSpaceOnUse" x1="-387.2144" y1="979.3408" x2="-533.5252" y2="434.737" gradientTransform="matrix(-0.7398 -0.1782 0.1988 -0.8252 561.429 841.8811)">
			<stop  offset="0" style="stop-color:#F48280"/>
			<stop  offset="0.1228" style="stop-color:#C06982"/>
			<stop  offset="0.2813" style="stop-color:#8C5183"/>
			<stop  offset="0.4246" style="stop-color:#664184"/>
			<stop  offset="0.5472" style="stop-color:#473884"/>
			<stop  offset="0.6445" style="stop-color:#323284"/>
			<stop  offset="0.7043" style="stop-color:#2A3085"/>
		</linearGradient>
		<polygon clip-path="url(#SVGID_11_)" fill="url(#SVGID_12_)" stroke="#FFFFFF" stroke-width="4" stroke-miterlimit="10" points="
			982.533,106.053 1202.732,159.092 1102.57,574.934 882.37,521.895 		"/>
		<use xlink:href="#SVGID_10_"  overflow="visible" fill="none" stroke="#FFFFFF" stroke-width="4" stroke-miterlimit="10"/>
	</g>
</g>
</svg>
