<?xml version="1.0" encoding="utf-8"?>
<!-- Generator: Adobe Illustrator 16.0.0, SVG Export Plug-In . SVG Version: 6.00 Build 0)  -->
<!DOCTYPE svg PUBLIC "-//W3C//DTD SVG 1.1//EN" "http://www.w3.org/Graphics/SVG/1.1/DTD/svg11.dtd">
<svg version="1.1" id="logo" xmlns="http://www.w3.org/2000/svg" xmlns:xlink="http://www.w3.org/1999/xlink" x="0px" y="0px"
	 width="500px" height="500px" viewBox="0 0 500 500" enable-background="new 0 0 500 500" xml:space="preserve">
<g id="logo_1">
	<rect x="-429.342" y="-235.333" fill="none" width="235.33" height="266.12"/>
	<text transform="matrix(1 0 0 1 -429.3418 -25.9341)" fill="#7B1315" font-family="'Dubai-Regular'" font-size="300">a</text>
	<rect x="-365.133" y="-86.294" fill="none" width="160.326" height="257.628"/>
	<text transform="matrix(1 0 0 1 -365.1328 123.105)" fill="#7B1315" font-family="'Dubai-Regular'" font-size="300">t</text>
	
		<circle id="cercle" fill="none" stroke="#1E1B57" stroke-width="23" stroke-miterlimit="10" cx="-334.97" cy="-12.945" r="141.001"/>
</g>
<rect x="702.537" y="147.021" fill="#2D2E2D" width="595.275" height="492.852"/>
<g id="logo_2">
	<path id="fond" display="none" fill="#FFFFFF" d="M-75.48,476.5c0,128.963-108.49,233.5-242.312,233.5
		c-133.829,0-242.32-104.537-242.32-233.5c0-128.961,108.491-233.5,242.32-233.5C-183.97,243-75.48,347.539-75.48,476.5z"/>
	<g id="AT_fond">
		
			<line fill="none" stroke="#FFFFFF" stroke-width="36" stroke-linecap="round" stroke-linejoin="round" stroke-miterlimit="10" x1="-468.125" y1="578.217" x2="-395.215" y2="578.217"/>
		
			<line fill="none" stroke="#FFFFFF" stroke-width="36" stroke-linecap="round" stroke-linejoin="round" stroke-miterlimit="10" x1="-395.215" y1="578.217" x2="-308.215" y2="378.268"/>
		
			<line fill="none" stroke="#FFFFFF" stroke-width="36" stroke-linecap="round" stroke-linejoin="round" stroke-miterlimit="10" x1="-308.215" y1="378.268" x2="-308.215" y2="578.217"/>
		
			<line fill="none" stroke="#FFFFFF" stroke-width="36" stroke-linecap="round" stroke-linejoin="round" stroke-miterlimit="10" x1="-397.715" y1="378.268" x2="-218.716" y2="378.268"/>
		
			<line fill="none" stroke="#FFFFFF" stroke-width="36" stroke-linecap="round" stroke-linejoin="round" stroke-miterlimit="10" x1="-356.808" y1="499.455" x2="-313.215" y2="499.455"/>
	</g>
	<g id="AT">
		
			<line fill="none" stroke="#000000" stroke-width="29" stroke-linecap="round" stroke-linejoin="round" stroke-miterlimit="10" x1="-468.125" y1="578.217" x2="-395.215" y2="578.217"/>
		
			<line fill="none" stroke="#000000" stroke-width="29" stroke-linecap="round" stroke-linejoin="round" stroke-miterlimit="10" x1="-395.215" y1="578.217" x2="-308.215" y2="378.268"/>
		
			<line fill="none" stroke="#000000" stroke-width="29" stroke-linecap="round" stroke-linejoin="round" stroke-miterlimit="10" x1="-308.215" y1="378.268" x2="-308.215" y2="578.217"/>
		
			<line fill="none" stroke="#000000" stroke-width="29" stroke-linecap="round" stroke-linejoin="round" stroke-miterlimit="10" x1="-397.715" y1="378.268" x2="-218.716" y2="378.268"/>
		
			<line fill="none" stroke="#000000" stroke-width="29" stroke-linecap="round" stroke-linejoin="round" stroke-miterlimit="10" x1="-356.808" y1="499.455" x2="-313.215" y2="499.455"/>
	</g>
	
		<circle display="none" fill="none" stroke="#FFFFFF" stroke-width="5" stroke-linecap="round" stroke-linejoin="round" stroke-miterlimit="10" cx="-477.565" cy="577.965" r="21.63"/>
	
		<circle display="none" fill="none" stroke="#000000" stroke-width="11" stroke-miterlimit="10" cx="-313.269" cy="477.672" r="191"/>
	<g id="points_gauche">
		<defs>
			<path id="SVGID_1_" d="M-278.269,286.672c0,19.33-15.67,35-35,35c-19.331,0-35.001-15.67-35.001-35c0-19.328,15.67-35,35.001-35
				C-293.939,251.672-278.269,267.344-278.269,286.672z M-425.906,291.553c-16.634,0-30.118,13.484-30.118,30.119
				s13.484,30.119,30.118,30.119c16.635,0,30.119-13.484,30.119-30.119S-409.271,291.553-425.906,291.553z M-491.194,378.24
				c-14.268,0-25.833,11.566-25.833,25.834s11.565,25.834,25.833,25.834s25.834-11.566,25.834-25.834
				S-476.926,378.24-491.194,378.24z M-504.269,474.002c-13.276,0-24.038,10.762-24.038,24.037s10.762,24.037,24.038,24.037
				c13.275,0,24.038-10.762,24.038-24.037S-490.994,474.002-504.269,474.002z M-476.79,559.236
				c-10.364,0-18.766,8.402-18.766,18.766s8.401,18.766,18.766,18.766c10.363,0,18.766-8.402,18.766-18.766
				S-466.426,559.236-476.79,559.236z M-428.326,615.102c-7.67,0-13.888,6.217-13.888,13.887s6.218,13.887,13.888,13.887
				c7.669,0,13.887-6.217,13.887-13.887S-420.657,615.102-428.326,615.102z M-375.936,650.504c-4.279,0-7.749,3.469-7.749,7.748
				s3.47,7.75,7.749,7.75c4.28,0,7.749-3.471,7.749-7.75S-371.656,650.504-375.936,650.504z"/>
		</defs>
		<clipPath id="SVGID_2_">
			<use xlink:href="#SVGID_1_"  overflow="visible"/>
		</clipPath>
		
			<linearGradient id="SVGID_3_" gradientUnits="userSpaceOnUse" x1="-541.0146" y1="857.4785" x2="-687.3253" y2="312.8757" gradientTransform="matrix(0.7398 0.1782 -0.1988 0.8252 152.5335 66.4466)">
			<stop  offset="0" style="stop-color:#7D86C1"/>
			<stop  offset="0.1228" style="stop-color:#886D8C"/>
			<stop  offset="0.2813" style="stop-color:#8B505B"/>
			<stop  offset="0.4246" style="stop-color:#89383A"/>
			<stop  offset="0.5472" style="stop-color:#852523"/>
			<stop  offset="0.6445" style="stop-color:#821616"/>
			<stop  offset="0.7043" style="stop-color:#811012"/>
		</linearGradient>
		<polygon clip-path="url(#SVGID_2_)" fill="url(#SVGID_3_)" stroke="#FFFFFF" stroke-width="4" stroke-miterlimit="10" points="
			-358.135,674.311 -578.334,621.271 -478.171,205.43 -257.972,258.469 		"/>
		<use xlink:href="#SVGID_1_"  overflow="visible" fill="none" stroke="#FFFFFF" stroke-width="4" stroke-miterlimit="10"/>
	</g>
	<g id="points_droite">
		<defs>
			<path id="SVGID_4_" d="M-349.306,668c0-19.33,15.67-35,35-35s35,15.67,35,35s-15.67,35-35,35S-349.306,687.33-349.306,668z
				 M-201.669,663.119c16.633,0,30.117-13.484,30.117-30.117c0-16.635-13.484-30.119-30.117-30.119
				c-16.635,0-30.119,13.484-30.119,30.119C-231.789,649.635-218.304,663.119-201.669,663.119z M-136.382,576.432
				c14.268,0,25.834-11.564,25.834-25.832s-11.566-25.834-25.834-25.834s-25.834,11.566-25.834,25.834
				S-150.65,576.432-136.382,576.432z M-123.306,480.672c13.275,0,24.037-10.762,24.037-24.039
				c0-13.275-10.762-24.037-24.037-24.037s-24.039,10.762-24.039,24.037C-147.345,469.91-136.582,480.672-123.306,480.672z
				 M-150.787,395.438c10.365,0,18.766-8.402,18.766-18.766c0-10.365-8.4-18.766-18.766-18.766c-10.363,0-18.766,8.4-18.766,18.766
				C-169.552,387.035-161.15,395.438-150.787,395.438z M-199.25,339.572c7.67,0,13.887-6.217,13.887-13.887
				s-6.217-13.889-13.887-13.889s-13.887,6.219-13.887,13.889S-206.919,339.572-199.25,339.572z M-251.64,304.17
				c4.279,0,7.75-3.471,7.75-7.75s-3.471-7.748-7.75-7.748s-7.748,3.469-7.748,7.748S-255.919,304.17-251.64,304.17z"/>
		</defs>
		<clipPath id="SVGID_5_">
			<use xlink:href="#SVGID_4_"  overflow="visible"/>
		</clipPath>
		
			<linearGradient id="SVGID_6_" gradientUnits="userSpaceOnUse" x1="1158.6074" y1="434.2676" x2="1012.2968" y2="-110.3353" gradientTransform="matrix(-0.7398 -0.1782 0.1988 -0.8252 561.429 841.8811)">
			<stop  offset="0" style="stop-color:#F48280"/>
			<stop  offset="0.1228" style="stop-color:#C06982"/>
			<stop  offset="0.2813" style="stop-color:#8C5183"/>
			<stop  offset="0.4246" style="stop-color:#664184"/>
			<stop  offset="0.5472" style="stop-color:#473884"/>
			<stop  offset="0.6445" style="stop-color:#323284"/>
			<stop  offset="0.7043" style="stop-color:#2A3085"/>
		</linearGradient>
		<polygon clip-path="url(#SVGID_5_)" fill="url(#SVGID_6_)" stroke="#FFFFFF" stroke-width="4" stroke-miterlimit="10" points="
			-269.441,280.361 -49.242,333.4 -149.404,749.242 -369.604,696.203 		"/>
		<use xlink:href="#SVGID_4_"  overflow="visible" fill="none" stroke="#FFFFFF" stroke-width="4" stroke-miterlimit="10"/>
	</g>
</g>
<g id="logo_2_dark">
	<path id="fond_1_" fill="#FFFFFF" d="M485,250c0,129.79-105.215,235-234.996,235C120.217,485,15,379.79,15,250
		C15,120.209,120.217,15,250.004,15C379.785,15,485,120.209,485,250z"/>
	<g id="AT_fond_1_">
		
			<line fill="none" stroke="#FFFFFF" stroke-width="36" stroke-linecap="round" stroke-linejoin="round" stroke-miterlimit="10" x1="99.671" y1="351.716" x2="172.581" y2="351.716"/>
		
			<line fill="none" stroke="#FFFFFF" stroke-width="36" stroke-linecap="round" stroke-linejoin="round" stroke-miterlimit="10" x1="172.581" y1="351.716" x2="259.58" y2="151.768"/>
		
			<line fill="none" stroke="#FFFFFF" stroke-width="36" stroke-linecap="round" stroke-linejoin="round" stroke-miterlimit="10" x1="259.58" y1="151.768" x2="259.58" y2="351.716"/>
		
			<line fill="none" stroke="#FFFFFF" stroke-width="36" stroke-linecap="round" stroke-linejoin="round" stroke-miterlimit="10" x1="170.081" y1="151.768" x2="349.08" y2="151.768"/>
		
			<line fill="none" stroke="#FFFFFF" stroke-width="36" stroke-linecap="round" stroke-linejoin="round" stroke-miterlimit="10" x1="210.988" y1="272.955" x2="254.58" y2="272.955"/>
	</g>
	<g id="AT_1_">
		
			<line fill="none" stroke="#000000" stroke-width="29" stroke-linecap="round" stroke-linejoin="round" stroke-miterlimit="10" x1="99.671" y1="351.716" x2="172.581" y2="351.716"/>
		
			<line fill="none" stroke="#000000" stroke-width="29" stroke-linecap="round" stroke-linejoin="round" stroke-miterlimit="10" x1="172.581" y1="351.716" x2="259.58" y2="151.768"/>
		
			<line fill="none" stroke="#000000" stroke-width="29" stroke-linecap="round" stroke-linejoin="round" stroke-miterlimit="10" x1="259.58" y1="151.768" x2="259.58" y2="351.716"/>
		
			<line fill="none" stroke="#000000" stroke-width="29" stroke-linecap="round" stroke-linejoin="round" stroke-miterlimit="10" x1="170.081" y1="151.768" x2="349.08" y2="151.768"/>
		
			<line fill="none" stroke="#000000" stroke-width="29" stroke-linecap="round" stroke-linejoin="round" stroke-miterlimit="10" x1="210.988" y1="272.955" x2="254.58" y2="272.955"/>
	</g>
	
		<circle display="none" fill="none" stroke="#FFFFFF" stroke-width="5" stroke-linecap="round" stroke-linejoin="round" stroke-miterlimit="10" cx="90.23" cy="351.465" r="21.63"/>
	
		<circle display="none" fill="none" stroke="#000000" stroke-width="11" stroke-miterlimit="10" cx="254.527" cy="251.172" r="191"/>
	<g id="points_gauche_1_">
		<defs>
			<path id="SVGID_7_" d="M289.527,60.172c0,19.33-15.67,35-35,35c-19.332,0-35.001-15.67-35.001-35c0-19.33,15.67-35,35.001-35
				C273.857,25.172,289.527,40.842,289.527,60.172z M141.891,65.053c-16.635,0-30.119,13.484-30.119,30.119
				s13.484,30.119,30.119,30.119c16.634,0,30.118-13.484,30.118-30.119S158.525,65.053,141.891,65.053z M76.602,151.74
				c-14.268,0-25.833,11.566-25.833,25.834s11.565,25.834,25.833,25.834s25.834-11.566,25.834-25.834S90.87,151.74,76.602,151.74z
				 M63.527,247.502c-13.276,0-24.038,10.762-24.038,24.037s10.762,24.037,24.038,24.037s24.038-10.762,24.038-24.037
				S76.803,247.502,63.527,247.502z M91.006,332.736c-10.363,0-18.766,8.402-18.766,18.766s8.402,18.766,18.766,18.766
				s18.766-8.402,18.766-18.766S101.37,332.736,91.006,332.736z M139.47,388.602c-7.67,0-13.888,6.217-13.888,13.887
				s6.218,13.887,13.888,13.887c7.669,0,13.888-6.217,13.888-13.887S147.139,388.602,139.47,388.602z M191.86,424.004
				c-4.279,0-7.748,3.469-7.748,7.748s3.469,7.75,7.748,7.75c4.28,0,7.75-3.471,7.75-7.75S196.14,424.004,191.86,424.004z"/>
		</defs>
		<clipPath id="SVGID_8_">
			<use xlink:href="#SVGID_7_"  overflow="visible"/>
		</clipPath>
		
			<linearGradient id="SVGID_9_" gradientUnits="userSpaceOnUse" x1="114.6748" y1="441.3887" x2="-31.636" y2="-103.2151" gradientTransform="matrix(0.7398 0.1782 -0.1988 0.8252 152.5335 66.4466)">
			<stop  offset="0" style="stop-color:#7D86C1"/>
			<stop  offset="0.1228" style="stop-color:#886D8C"/>
			<stop  offset="0.2813" style="stop-color:#8B505B"/>
			<stop  offset="0.4246" style="stop-color:#89383A"/>
			<stop  offset="0.5472" style="stop-color:#852523"/>
			<stop  offset="0.6445" style="stop-color:#821616"/>
			<stop  offset="0.7043" style="stop-color:#811012"/>
		</linearGradient>
		<polygon clip-path="url(#SVGID_8_)" fill="url(#SVGID_9_)" stroke="#FFFFFF" stroke-width="4" stroke-miterlimit="10" points="
			209.661,447.811 -10.539,394.771 89.625,-21.07 309.824,31.969 		"/>
		<use xlink:href="#SVGID_7_"  overflow="visible" fill="none" stroke="#FFFFFF" stroke-width="4" stroke-miterlimit="10"/>
	</g>
	<g id="points_droite_1_">
		<defs>
			<path id="SVGID_10_" d="M218.49,441.5c0-19.33,15.67-35,35-35c19.33,0,35,15.67,35,35s-15.67,35-35,35
				C234.16,476.5,218.49,460.83,218.49,441.5z M366.127,436.619c16.633,0,30.117-13.484,30.117-30.117
				c0-16.635-13.484-30.119-30.117-30.119c-16.635,0-30.119,13.484-30.119,30.119C336.008,423.135,349.492,436.619,366.127,436.619z
				 M431.414,349.932c14.268,0,25.834-11.564,25.834-25.832s-11.566-25.834-25.834-25.834S405.58,309.832,405.58,324.1
				S417.146,349.932,431.414,349.932z M444.49,254.172c13.275,0,24.037-10.762,24.037-24.039c0-13.275-10.762-24.037-24.037-24.037
				s-24.039,10.762-24.039,24.037C420.451,243.41,431.215,254.172,444.49,254.172z M417.01,168.938
				c10.365,0,18.766-8.402,18.766-18.766c0-10.365-8.4-18.766-18.766-18.766c-10.363,0-18.766,8.4-18.766,18.766
				C398.244,160.535,406.646,168.938,417.01,168.938z M368.547,113.072c7.67,0,13.887-6.217,13.887-13.887
				s-6.217-13.889-13.887-13.889s-13.887,6.219-13.887,13.889S360.877,113.072,368.547,113.072z M316.156,77.67
				c4.279,0,7.75-3.471,7.75-7.75s-3.471-7.748-7.75-7.748s-7.748,3.469-7.748,7.748S311.877,77.67,316.156,77.67z"/>
		</defs>
		<clipPath id="SVGID_11_">
			<use xlink:href="#SVGID_10_"  overflow="visible"/>
		</clipPath>
		
			<linearGradient id="SVGID_12_" gradientUnits="userSpaceOnUse" x1="502.918" y1="850.3584" x2="356.6074" y2="305.7556" gradientTransform="matrix(-0.7398 -0.1782 0.1988 -0.8252 561.429 841.8811)">
			<stop  offset="0" style="stop-color:#F48280"/>
			<stop  offset="0.1228" style="stop-color:#C06982"/>
			<stop  offset="0.2813" style="stop-color:#8C5183"/>
			<stop  offset="0.4246" style="stop-color:#664184"/>
			<stop  offset="0.5472" style="stop-color:#473884"/>
			<stop  offset="0.6445" style="stop-color:#323284"/>
			<stop  offset="0.7043" style="stop-color:#2A3085"/>
		</linearGradient>
		<polygon clip-path="url(#SVGID_11_)" fill="url(#SVGID_12_)" stroke="#FFFFFF" stroke-width="4" stroke-miterlimit="10" points="
			298.355,53.861 518.555,106.9 418.393,522.742 198.192,469.703 		"/>
		<use xlink:href="#SVGID_10_"  overflow="visible" fill="none" stroke="#FFFFFF" stroke-width="4" stroke-miterlimit="10"/>
	</g>
</g>
</svg>
